<?xml version="1.0" encoding="UTF-8" standalone="no"?>
<svg
   width="500"
   zoomAndPan="magnify"
   viewBox="0 0 375 374.999991"
   height="500"
   preserveAspectRatio="xMidYMid meet"
   version="1.0"
   id="svg76"
   sodipodi:docname="name-tp.svg"
   inkscape:version="1.2.2 (732a01da63, 2022-12-09, custom)"
   xmlns:inkscape="http://www.inkscape.org/namespaces/inkscape"
   xmlns:sodipodi="http://sodipodi.sourceforge.net/DTD/sodipodi-0.dtd"
   xmlns="http://www.w3.org/2000/svg"
   xmlns:svg="http://www.w3.org/2000/svg">
  <sodipodi:namedview
     id="namedview78"
     pagecolor="#ffffff"
     bordercolor="#000000"
     borderopacity="0.25"
     inkscape:showpageshadow="2"
     inkscape:pageopacity="0.0"
     inkscape:pagecheckerboard="0"
     inkscape:deskcolor="#d1d1d1"
     showgrid="false"
     inkscape:zoom="1.068"
     inkscape:cx="250"
     inkscape:cy="250.46816"
     inkscape:window-width="1366"
     inkscape:window-height="678"
     inkscape:window-x="1680"
     inkscape:window-y="28"
     inkscape:window-maximized="1"
     inkscape:current-layer="svg76" />
  <defs
     id="defs40">
    <filter
       x="0"
       y="0"
       width="1"
       height="1"
       id="3b3e4409fa">
      <feColorMatrix
         values="0 0 0 0 1 0 0 0 0 1 0 0 0 0 1 0 0 0 1 0"
         color-interpolation-filters="sRGB"
         id="feColorMatrix18" />
    </filter>
    <g
       id="g21" />
    <mask
       id="e371968924">
      <g
         filter="url(#3b3e4409fa)"
         id="g25">
        <rect
           x="-37.5"
           width="450"
           fill="#000000"
           y="-37.499999"
           height="449.999989"
           fill-opacity="0.6392"
           id="rect23" />
      </g>
    </mask>
    <clipPath
       id="1e1fd6ee29">
      <path
         d="M 1 0.160156 L 144 0.160156 L 144 239 L 1 239 Z M 1 0.160156 "
         clip-rule="nonzero"
         id="path28" />
    </clipPath>
    <clipPath
       id="a237f09ab6">
      <path
         d="M 60.5625 0.335938 L 148.238281 24.457031 L 87.929688 243.648438 L 0.253906 219.523438 Z M 60.5625 0.335938 "
         clip-rule="nonzero"
         id="path31" />
    </clipPath>
    <clipPath
       id="db0c60317a">
      <path
         d="M 60.5625 0.335938 L 145.5 23.707031 L 86.347656 238.6875 L 1.410156 215.316406 Z M 60.5625 0.335938 "
         clip-rule="nonzero"
         id="path34" />
    </clipPath>
    <clipPath
       id="b9a62455c8">
      <rect
         x="0"
         width="149"
         y="0"
         height="244"
         id="rect37" />
    </clipPath>
  </defs>
  <g
     fill="#000000"
     fill-opacity="1"
     id="g56">
    <g
       transform="translate(176.452899, 258.716338)"
       id="g54">
      <g
         id="g52">
        <g
           id="g247">
          <g
             fill="#000000"
             fill-opacity="1"
             id="g48"
             transform="translate(-176.4529,-258.71634)">
            <g
               transform="translate(61.873227, 258.716338)"
               id="g46">
              <g
                 id="g44">
                <path
                   d="M 73.328125 -58.421875 L 47.140625 -58.421875 L 47.140625 0 L 14.25 0 L 14.25 -159.59375 L 73.546875 -159.59375 C 92.398438 -159.59375 106.941406 -155.390625 117.171875 -146.984375 C 127.398438 -138.585938 132.515625 -126.710938 132.515625 -111.359375 C 132.515625 -100.472656 130.15625 -91.394531 125.4375 -84.125 C 120.726562 -76.851562 113.585938 -71.0625 104.015625 -66.75 L 138.546875 -1.53125 L 138.546875 0 L 103.25 0 Z M 47.140625 -85.0625 L 73.65625 -85.0625 C 81.914062 -85.0625 88.3125 -87.160156 92.84375 -91.359375 C 97.375 -95.554688 99.640625 -101.347656 99.640625 -108.734375 C 99.640625 -116.265625 97.5 -122.179688 93.21875 -126.484375 C 88.945312 -130.796875 82.390625 -132.953125 73.546875 -132.953125 L 47.140625 -132.953125 Z M 47.140625 -85.0625 "
                   id="path42" />
              </g>
            </g>
          </g>
          <path
             d="M 110.265625 -65.21875 L 47.140625 -65.21875 L 47.140625 0 L 14.25 0 L 14.25 -159.59375 L 118.15625 -159.59375 L 118.15625 -132.953125 L 47.140625 -132.953125 L 47.140625 -91.75 L 110.265625 -91.75 Z M 110.265625 -65.21875 "
             id="path50" />
        </g>
      </g>
    </g>
  </g>
  <path
     stroke-linecap="round"
     transform="matrix(0.193904, -0.72366, 0.724444, 0.194114, 195.86066, 269.995002)"
     fill="none"
     stroke-linejoin="miter"
     d="M 4.999758 5.001062 L 240.271937 4.996862 "
     stroke="#ffffff"
     stroke-width="10"
     stroke-opacity="1"
     stroke-miterlimit="4"
     id="path58" />
  <path
     stroke-linecap="round"
     transform="matrix(0.000000000000000046, -0.749188, 0.75, 0.000000000000000046, 158.816713, 276.270831)"
     fill="none"
     stroke-linejoin="miter"
     d="M 5.001943 4.999591 L 240.272383 4.999591 "
     stroke="#ffffff"
     stroke-width="10"
     stroke-opacity="1"
     stroke-miterlimit="4"
     id="path60" />
  <g
     mask="url(#e371968924)"
     id="g74">
    <g
       transform="matrix(1, 0, 0, 1, 192, 86)"
       id="g72">
      <g
         clip-path="url(#b9a62455c8)"
         id="g70">
        <g
           clip-path="url(#1e1fd6ee29)"
           id="g68">
          <g
             clip-path="url(#a237f09ab6)"
             id="g66">
            <g
               clip-path="url(#db0c60317a)"
               id="g64">
              <path
                 fill="#ffffff"
                 d="M 60.5625 0.335938 L 143.855469 23.253906 L 84.75 238.058594 L 1.457031 215.140625 Z M 60.5625 0.335938 "
                 fill-opacity="1"
                 fill-rule="nonzero"
                 id="path62" />
            </g>
          </g>
        </g>
      </g>
    </g>
  </g>
</svg>
